<svg width="134" height="87" viewBox="0 0 134 87" fill="none" xmlns="http://www.w3.org/2000/svg">
<path d="M10.0585 75.04C10.0585 76.16 9.4985 76.72 8.3785 76.72H6.3625C5.2425 76.72 4.6825 76.16 4.6825 75.04V45.52C4.6825 44.4 5.2425 43.84 6.3625 43.84H22.6825C23.8025 43.84 24.3625 44.4 24.3625 45.52V47.728C24.3625 48.816 23.8185 49.36 22.7305 49.36H10.0585V58.432H20.7625C21.8825 58.432 22.4425 58.992 22.4425 60.112V62.32C22.4425 63.408 21.8985 63.952 20.8105 63.952H10.0585V75.04ZM33.7203 74.32C33.7203 75.44 33.1603 76 32.0403 76H29.9763C28.8563 76 28.2963 75.44 28.2963 74.32V43.12C28.2963 42 28.8563 41.44 29.9763 41.44H32.0403C33.1603 41.44 33.7203 42 33.7203 43.12V74.32ZM56.7918 77.2H53.9118C53.1118 77.2 52.7118 76.8 52.7118 76V73.936C51.9438 74.704 50.9998 75.312 49.8798 75.76C48.7598 76.208 47.6078 76.464 46.4238 76.528C46.1358 76.528 45.8478 76.528 45.5598 76.528C43.9918 76.464 42.6158 76.08 41.4318 75.376C40.2478 74.672 39.3198 73.744 38.6478 72.592C38.0078 71.408 37.6878 70.096 37.6878 68.656C37.6878 67.28 37.9758 66.016 38.5518 64.864C39.1598 63.712 40.1038 62.8 41.3838 62.128C42.6958 61.424 44.4078 61.072 46.5198 61.072C47.5118 61.072 48.5518 61.184 49.6398 61.408C50.7278 61.6 51.7518 61.904 52.7118 62.32C52.7118 62.192 52.6958 62.08 52.6638 61.984C52.6638 61.856 52.6478 61.744 52.6158 61.648C52.4878 59.984 51.9278 58.736 50.9358 57.904C49.9758 57.072 48.6638 56.656 46.9998 56.656C46.1038 56.656 45.1438 56.816 44.1198 57.136C43.1278 57.456 42.1678 57.904 41.2398 58.48C40.6958 58.8 40.2318 58.608 39.8478 57.904L39.5117 57.184L38.7918 55.792C38.7278 55.664 38.6638 55.536 38.5998 55.408C38.5678 55.28 38.5198 55.152 38.4558 55.024C38.3278 54.576 38.4718 54.192 38.8878 53.872C39.9438 53.072 41.2558 52.432 42.8238 51.952C44.3918 51.472 46.0398 51.232 47.7678 51.232C50.9358 51.232 53.4318 52.16 55.2558 54.016C57.0798 55.872 57.9918 58.512 57.9918 61.936V75.616C57.9918 75.744 57.9758 75.872 57.9438 76C57.9438 76.16 57.9438 76.304 57.9438 76.432C57.8158 76.944 57.4318 77.2 56.7918 77.2ZM46.9998 71.488C47.8958 71.488 48.7438 71.344 49.5438 71.056C50.3758 70.768 51.0638 70.4 51.6078 69.952C52.1838 69.472 52.5198 68.944 52.6158 68.368C52.6478 68.208 52.6638 68.032 52.6638 67.84C52.6958 67.648 52.7118 67.456 52.7118 67.264V66.832C51.8158 66.48 50.8558 66.224 49.8318 66.064C48.8398 65.872 47.8958 65.776 46.9998 65.776C45.6878 65.776 44.6798 66.016 43.9758 66.496C43.3038 66.944 42.9678 67.6 42.9678 68.464C42.9678 69.424 43.3678 70.176 44.1678 70.72C44.9678 71.232 45.9118 71.488 46.9998 71.488ZM62.122 59.008C62.122 56.896 62.858 55.152 64.33 53.776C65.802 52.4 67.946 51.712 70.762 51.712C71.53 51.712 72.362 51.792 73.258 51.952C74.186 52.08 75.066 52.288 75.898 52.576C76.762 52.864 77.482 53.216 78.058 53.632C78.346 53.856 78.49 54.096 78.49 54.352C78.522 54.608 78.474 54.896 78.346 55.216L77.29 57.52C77.162 57.84 76.97 58.048 76.714 58.144C76.458 58.24 76.202 58.24 75.946 58.144C74.922 57.76 73.946 57.44 73.018 57.184C72.09 56.928 71.162 56.8 70.234 56.8C68.282 56.8 67.306 57.472 67.306 58.816C67.306 59.488 67.594 60.016 68.17 60.4C68.746 60.784 69.482 61.12 70.378 61.408C71.306 61.664 72.282 61.952 73.306 62.272C74.362 62.592 75.338 63.008 76.234 63.52C77.162 64.032 77.914 64.736 78.49 65.632C79.066 66.496 79.354 67.616 79.354 68.992C79.354 70.72 78.938 72.144 78.106 73.264C77.306 74.384 76.218 75.216 74.842 75.76C73.466 76.272 71.962 76.528 70.33 76.528C69.434 76.528 68.474 76.432 67.45 76.24C66.426 76.08 65.45 75.824 64.522 75.472C63.626 75.088 62.826 74.64 62.122 74.128C61.834 73.904 61.69 73.68 61.69 73.456C61.69 73.2 61.738 72.912 61.834 72.592L62.842 70.192C62.97 69.872 63.162 69.648 63.418 69.52C63.674 69.392 63.946 69.408 64.234 69.568C65.162 70.048 66.202 70.464 67.354 70.816C68.506 71.136 69.61 71.296 70.666 71.296C71.786 71.296 72.65 71.152 73.258 70.864C73.866 70.544 74.17 70.064 74.17 69.424C74.17 68.752 73.882 68.224 73.306 67.84C72.73 67.424 71.978 67.088 71.05 66.832C70.154 66.544 69.178 66.24 68.122 65.92C67.098 65.568 66.122 65.136 65.194 64.624C64.298 64.08 63.562 63.36 62.986 62.464C62.41 61.568 62.122 60.416 62.122 59.008ZM88.6075 74.56C88.6075 75.68 88.0475 76.24 86.9275 76.24H85.0075C83.8875 76.24 83.3275 75.68 83.3275 74.56V43.84C83.3275 42.72 83.8875 42.16 85.0075 42.16H86.9275C88.0475 42.16 88.6075 42.72 88.6075 43.84V55.744C89.5675 54.432 90.7355 53.44 92.1115 52.768C93.4875 52.064 94.8795 51.712 96.2875 51.712C98.5915 51.712 100.496 52.464 102 53.968C103.504 55.44 104.256 57.84 104.256 61.168V74.8C104.256 75.92 103.696 76.48 102.576 76.48H100.656C99.5355 76.48 98.9755 75.92 98.9755 74.8V63.088C98.9755 61.104 98.5595 59.632 97.7275 58.672C96.9275 57.712 95.8395 57.232 94.4635 57.232C93.3755 57.232 92.3835 57.504 91.4875 58.048C90.6235 58.56 89.9195 59.312 89.3755 60.304C88.8635 61.264 88.6075 62.432 88.6075 63.808V74.56ZM119.283 86.08C117.619 86.08 115.939 85.872 114.243 85.456C112.579 85.04 111.235 84.448 110.211 83.68C109.923 83.456 109.763 83.216 109.73 82.96C109.73 82.736 109.794 82.464 109.923 82.144L110.931 79.648C111.123 79.2 111.315 78.896 111.507 78.736C111.731 78.608 111.987 78.624 112.275 78.784C112.819 79.072 113.475 79.344 114.243 79.6C115.011 79.888 115.827 80.112 116.691 80.272C117.587 80.464 118.419 80.56 119.187 80.56C120.211 80.56 121.123 80.4 121.923 80.08C122.723 79.792 123.347 79.248 123.795 78.448C124.275 77.68 124.515 76.576 124.515 75.136V71.776C123.587 73.056 122.435 74.048 121.059 74.752C119.683 75.456 118.275 75.808 116.835 75.808C114.531 75.808 112.627 75.056 111.123 73.552C109.619 72.048 108.867 69.648 108.867 66.352V53.2C108.867 52.08 109.427 51.52 110.547 51.52H112.467C113.587 51.52 114.147 52.08 114.147 53.2V64.432C114.147 66.416 114.547 67.888 115.347 68.848C116.179 69.808 117.299 70.288 118.707 70.288C119.795 70.288 120.771 70.032 121.635 69.52C122.499 68.976 123.187 68.224 123.699 67.264C124.243 66.272 124.515 65.088 124.515 63.712V53.92C124.515 52.8 125.075 52.24 126.195 52.24H128.115C129.235 52.24 129.795 52.8 129.795 53.92V75.808C129.795 78.304 129.331 80.304 128.403 81.808C127.475 83.312 126.211 84.4 124.611 85.072C123.043 85.744 121.267 86.08 119.283 86.08Z" fill="#363636"/>
<rect x="1.74072" width="31.6049" height="31.6049" rx="3" fill="#FF70A6"/>
<rect x="50.7285" width="31.6049" height="31.6049" rx="3" fill="#FF9770"/>
<rect x="99.7161" width="31.6049" height="31.6049" rx="3" fill="#FFD670"/>
</svg>
